# xmcd CD database file
#
# Track frame offsets:
#	150
#	13197
#	31755
#	52485
#	77060
#	100640
#	114495
#	137315
#	152797
#	176887
#	201025
#	217615
#	235437
#
# Disc length: 3530 seconds
#
# Revision: 3
# Processed by: cddbd v1.5.1PL0 Copyright (c) Steve Scherf et al.
# Submitted via: CDex 1.51
#
DISCID=a70dc80d
DTITLE=Eyewitness - Messiah Complex
DYEAR=1996
DGENRE=Hard Rock
TTITLE0=Messiah Complex
TTITLE1=All We Are
TTITLE2=The Servant Has Become The Master
TTITLE3=The Circle
TTITLE4=Desert Rain
TTITLE5=I Think I Wanna Die Now
TTITLE6=Cries For Mercy
TTITLE7=Out Of Sight, Out Of Mind
TTITLE8=Breaking Down THe Walls
TTITLE9=Sea Of Madness
TTITLE10=The Blade
TTITLE11=The Guiding Hand
TTITLE12=Dreamscape
EXTD=YEAR: 1996
EXTT0=
EXTT1=
EXTT2=
EXTT3=
EXTT4=
EXTT5=
EXTT6=
EXTT7=
EXTT8=
EXTT9=
EXTT10=
EXTT11=
EXTT12=
PLAYORDER=
